# xmcd
#
# Track frame offsets:
# 150
# 18378
# 31639
# 51977
# 69860
# 89943
# 107440
# 128957
# 142156
# 148423
# 166067
# 188687
# 204544
# 218064
# 233884
#
# Disc length: 3423 seconds
#
# Revision: 0
# Processed by: cddbd v1.5PL3 Copyright (c) Steve Scherf et al.
# Submitted via: Audion 3.0.2 (http://www.panic.com/audion/)
#
DISCID=da0d5d0f
DTITLE=Mixed - Ljud CD #5
DYEAR=1900
DGENRE=
TTITLE0=Mustang Sally
TTITLE1=Dover Calais
TTITLE2=Yes Sir, I Can Boogie
TTITLE3=Yhe Look
TTITLE4=Save A Praire
TTITLE5=Can't Get You Out Of My Head
TTITLE6=Stayin Alive
TTITLE7=Hooked On A Feeling
TTITLE8=Bladerunner Theme
TTITLE9=Love Hurts
TTITLE10=Disco Band
TTITLE11=Blue
TTITLE12=Stand By Me
TTITLE13=Never Ending Story
TTITLE14=Another Day In Paradise
EXTD=
EXTT0=
EXTT1=
EXTT2=
EXTT3=
EXTT4=
EXTT5=
EXTT6=
EXTT7=
EXTT8=
EXTT9=
EXTT10=
EXTT11=
EXTT12=
EXTT13=
EXTT14=
PLAYORDER=
